# This file uses centimeters as units for non-parametric coordinates.

g default
v -7.398138 -0.809998 0.587390
v 0.000000 -0.072186 0.915908
v -7.398138 -0.809998 -0.587390
v 0.000000 -0.072186 -0.915908
v -3.547360 0.297113 1.847956
v -3.547360 0.297113 -1.847956
v -5.476271 -0.173459 1.496930
v -5.476271 -0.173459 -1.496930
v -1.635609 0.193853 1.629563
v -1.635609 0.193853 -1.629563
v 0.145651 -0.058622 0.000000
v -1.635609 0.715366 0.000000
v -3.547360 0.851993 0.000000
v -5.476271 0.324647 0.000000
v -7.535713 -0.840906 0.000000
v 0.131376 0.049197 0.512316
v -1.635609 0.827413 0.862077
v -3.547360 0.959813 1.033660
v -5.476271 0.364562 0.729465
v -7.511906 -0.733087 0.242592
v 0.131376 0.049197 -0.512316
v -1.635609 0.827413 -0.862077
v -3.547360 0.959813 -1.033660
v -5.476271 0.364562 -0.729465
v -7.511906 -0.733087 -0.242592
v -1.635609 0.649147 0.000000
v -3.547360 0.791776 0.000000
v -5.476271 0.253891 0.000000
v -1.635609 0.743304 0.862077
v -3.547360 0.882381 1.033660
v -5.476271 0.287434 0.729465
v -1.635609 0.743304 -0.862077
v -3.547360 0.882381 -1.033660
v -5.476271 0.287434 -0.729465
v -3.547360 0.270771 -1.791214
v -5.476271 -0.204608 -1.437025
v -7.340103 -0.838957 -0.579763
v -7.450820 -0.769587 -0.257202
v -7.474012 -0.875230 0.000000
v -7.450820 -0.769587 0.257202
v -7.339436 -0.839576 0.582184
v -5.476271 -0.204608 1.437025
v -3.547360 0.270771 1.791214
v -1.635609 0.167405 1.572745
v -0.052481 -0.101696 0.889192
v 0.067413 0.007198 0.524977
v 0.080712 -0.099944 0.000000
v 0.067413 0.007198 -0.524977
v -0.052389 -0.101673 -0.889045
v -1.635609 0.167405 -1.572745
vt 0.711907 0.983151
vt 0.603202 0.734048
vt 0.702536 0.708441
vt 0.751472 0.990945
vt 0.672632 0.467379
vt 0.558143 0.477490
vt 0.578918 0.224430
vt 0.689372 0.241030
vt 0.674026 0.016699
vt 0.722491 0.007039
vt 0.868771 0.241030
vt 0.779072 0.236846
vt 0.779072 0.000000
vt 0.835652 0.007039
vt 0.885511 0.467379
vt 0.779072 0.468818
vt 0.855607 0.708441
vt 0.779072 0.710789
vt 0.779072 1.000000
vt 0.806671 0.990945
vt 0.979225 0.224430
vt 0.884118 0.016699
vt 1.000000 0.477490
vt 0.954941 0.734048
vt 0.846237 0.983151
vt 0.711907 0.983151
vt 0.751472 0.990945
vt 0.702536 0.708441
vt 0.603202 0.734048
vt 0.672632 0.467379
vt 0.689372 0.241030
vt 0.578918 0.224430
vt 0.558143 0.477490
vt 0.722491 0.007039
vt 0.674026 0.016699
vt 0.868771 0.241030
vt 0.835652 0.007039
vt 0.779072 0.000000
vt 0.779072 0.236846
vt 0.885511 0.467379
vt 0.779072 0.468818
vt 0.855607 0.708441
vt 0.779072 0.710789
vt 0.779072 1.000000
vt 0.806671 0.990945
vt 0.979225 0.224430
vt 0.884118 0.016699
vt 1.000000 0.477490
vt 0.954941 0.734048
vt 0.846237 0.983151
vt 0.992022 0.476785
vt 0.947187 0.732049
vt 0.845240 0.974519
vt 0.808140 0.982467
vt 0.779072 0.991335
vt 0.750004 0.982467
vt 0.712621 0.974482
vt 0.610956 0.732049
vt 0.566121 0.476785
vt 0.587095 0.225659
vt 0.677421 0.024549
vt 0.721292 0.015509
vt 0.779072 0.008635
vt 0.836851 0.015509
vt 0.880717 0.024549
vt 0.971048 0.225659
vn -0.487516 0.742040 0.460114
vn -0.378878 0.755979 0.533804
vn -0.382125 0.887559 0.257329
vn -0.499148 0.856338 0.132422
vn -0.104386 0.944610 0.311151
vn -0.107050 0.780736 0.615624
vn 0.213949 0.770497 0.600467
vn 0.220068 0.940929 0.257340
vn 0.395684 0.751043 0.528554
vn 0.413251 0.901615 0.127729
vn 0.220068 0.940929 -0.257340
vn 0.207313 0.978275 -0.000000
vn 0.388892 0.921283 0.000000
vn 0.413251 0.901614 -0.127729
vn -0.104386 0.944610 -0.311151
vn -0.104581 0.994516 -0.000000
vn -0.382125 0.887559 -0.257329
vn -0.354158 0.935186 -0.000000
vn -0.472524 0.881318 0.000000
vn -0.499148 0.856338 -0.132422
vn 0.213949 0.770497 -0.600467
vn 0.395684 0.751043 -0.528554
vn -0.107050 0.780736 -0.615624
vn -0.378878 0.755979 -0.533804
vn -0.487516 0.742040 -0.460114
vn -0.186099 -0.847422 0.497236
vn -0.500515 -0.838361 0.215954
vn -0.497026 -0.858318 0.127496
vn -0.097580 -0.789332 0.606162
vn 0.073268 -0.899222 0.431314
vn 0.044533 -0.879093 0.474565
vn 0.029511 -0.888836 0.457274
vn 0.067239 -0.900031 0.430608
vn 0.025025 -0.818269 0.574291
vn 0.073116 -0.851758 0.518809
vn 0.166363 -0.885993 0.432828
vn 0.225102 -0.902647 0.366822
vn 0.555747 -0.831351 0.000000
vn 0.542564 -0.838240 -0.054573
vn 0.545224 -0.831306 -0.107986
vn 0.555747 -0.831351 0.000000
vn 0.104233 -0.948062 0.300522
vn -0.217233 -0.944318 0.247132
vn -0.206304 -0.978488 -0.000000
vn 0.104102 -0.994567 0.000000
vn 0.380748 -0.890939 0.247505
vn 0.354804 -0.934941 0.000000
vn -0.535896 -0.844284 0.000000
vn -0.500132 -0.838533 -0.216170
vn -0.496448 -0.858630 -0.127647
vn -0.535896 -0.844284 0.000000
vn 0.542441 -0.838323 0.054510
vn 0.545153 -0.831358 0.107944
vn -0.217234 -0.944317 -0.247133
vn 0.104233 -0.948062 -0.300522
vn 0.380772 -0.890919 -0.247540
vn 0.166268 -0.886329 -0.432175
vn 0.224455 -0.902759 -0.366942
vn 0.067240 -0.900031 -0.430609
vn 0.029413 -0.888950 -0.457059
vn 0.044382 -0.879276 -0.474241
vn 0.073268 -0.899222 -0.431314
vn 0.075785 -0.854286 -0.514249
vn 0.029979 -0.823513 -0.566505
vn -0.090247 -0.800061 -0.593092
vn -0.173371 -0.852154 -0.493737
vn 0.378203 -0.757863 0.531607
vn 0.107270 -0.783815 0.611659
vn 0.486480 -0.744128 0.457833
vn 0.496842 -0.859205 0.122123
vn 0.471781 -0.881716 0.000000
vn 0.496810 -0.859191 -0.122357
vn 0.486402 -0.744314 -0.457613
vn 0.378283 -0.757929 -0.531457
vn 0.107270 -0.783815 -0.611659
vn -0.211172 -0.774269 -0.596585
vn -0.393830 -0.754689 -0.524730
vn -0.410029 -0.904403 -0.118031
vn -0.387578 -0.921837 -0.000000
vn -0.410034 -0.904400 0.118041
vn -0.393838 -0.754676 0.524745
vn -0.211167 -0.774265 0.596592
s 1
g palm_leaves1
f 1/1/1 7/2/2 19/3/3 20/4/4
f 18/5/5 5/6/6 9/7/7 17/8/8
f 19/3/3 7/2/2 5/6/6 18/5/5
f 17/8/8 9/7/7 2/9/9 16/10/10
f 22/11/11 12/12/12 11/13/13 21/14/14
f 23/15/15 13/16/16 12/12/12 22/11/11
f 24/17/17 14/18/18 13/16/16 23/15/15
f 15/19/19 14/18/18 24/17/17 25/20/20
f 12/12/12 17/8/8 16/10/10 11/13/13
f 13/16/16 18/5/5 17/8/8 12/12/12
f 14/18/18 19/3/3 18/5/5 13/16/16
f 20/4/4 19/3/3 14/18/18 15/19/19
f 10/21/21 22/11/11 21/14/14 4/22/22
f 6/23/23 23/15/15 22/11/11 10/21/21
f 8/24/24 24/17/17 23/15/15 6/23/23
f 25/20/20 24/17/17 8/24/24 3/25/25
s 3
f 1/26/26 20/27/27 40/56/28 41/57/29
f 43/59/30 44/60/31 9/32/32 5/33/33
f 42/58/34 43/59/30 5/33/33 7/29/35
f 44/60/31 45/61/36 2/35/37 9/32/32
f 47/63/38 48/64/39 21/37/40 11/38/41
s 6
f 33/40/42 32/36/43 26/39/44 27/41/45
f 34/42/46 33/40/42 27/41/45 28/43/47
s 3
f 15/44/48 25/45/49 38/54/50 39/55/51
f 46/62/52 47/63/38 11/38/41 16/34/53
s 6
f 27/41/45 26/39/44 29/31/54 30/30/55
f 28/43/47 27/41/45 30/30/55 31/28/56
s 3
f 20/27/27 15/44/48 39/55/51 40/56/28
f 49/65/57 4/47/58 21/37/40 48/64/39
f 6/48/59 10/46/60 50/66/61 35/51/62
f 8/49/63 6/48/59 35/51/62 36/52/64
f 37/53/65 3/50/66 8/49/63 36/52/64
f 25/45/49 3/50/66 37/53/65 38/54/50
f 1/26/26 41/57/29 42/58/34 7/29/35
f 2/35/37 45/61/36 46/62/52 16/34/53
f 10/46/60 4/47/58 49/65/57 50/66/61
s 6
f 34/42/46 36/52/67 35/51/68 33/40/42
f 37/53/69 36/52/67 34/42/46 38/54/70
f 28/43/47 39/55/71 38/54/70 34/42/46
f 40/56/72 39/55/71 28/43/47 31/28/56
f 41/57/73 40/56/72 31/28/56 42/58/74
f 43/59/75 42/58/74 31/28/56 30/30/55
f 29/31/54 44/60/76 43/59/75 30/30/55
f 45/61/77 44/60/76 29/31/54 46/62/78
f 47/63/79 46/62/78 29/31/54 26/39/44
f 32/36/43 48/64/80 47/63/79 26/39/44
f 49/65/81 48/64/80 32/36/43 50/66/82
f 33/40/42 35/51/68 50/66/82 32/36/43
