# Blender 3.6.5
# www.blender.org
mtllib lightning.mtl
o Lightning.003_0
v -0.505420 1.809775 0.543290
v -0.543290 1.809775 0.543290
v -0.543290 1.809775 0.493380
v -0.486800 1.809774 0.354590
v -0.326390 1.809774 0.227960
v -0.223250 1.809774 0.158200
v -0.248860 1.809774 0.054300
v -0.056900 1.809774 -0.089970
v -0.409890 1.809775 0.444050
v -0.023670 1.809774 0.142000
v -0.001390 1.809774 0.279130
v -0.148940 1.809774 0.304470
v 0.240140 1.809774 -0.086380
v 0.297560 1.809774 0.001810
v 0.135190 1.809774 0.046650
v -0.046720 1.809774 -0.165760
v -0.048630 1.809774 -0.215220
v 0.161660 1.809774 -0.380500
v 0.543290 1.809774 -0.286540
v 0.446300 1.809774 -0.195470
v 0.291450 1.809774 -0.543290
v 0.355650 1.809774 -0.543290
v 0.543290 1.809774 -0.347770
v -0.543290 1.852654 0.493380
v -0.543290 1.852654 0.543290
v -0.505420 1.852654 0.543290
v -0.409890 1.852654 0.444050
v -0.326390 1.852654 0.227960
v -0.486800 1.852654 0.354590
v -0.056900 1.852654 -0.089970
v -0.248860 1.852654 0.054300
v -0.223250 1.852654 0.158200
v -0.148940 1.852654 0.304470
v -0.001390 1.852654 0.279130
v -0.023670 1.852654 0.142000
v 0.135190 1.852654 0.046650
v 0.297560 1.852654 0.001810
v 0.240140 1.852654 -0.086380
v 0.446300 1.852654 -0.195470
v 0.543290 1.852654 -0.286540
v 0.543290 1.852654 -0.347770
v 0.355650 1.852654 -0.543290
v 0.291450 1.852654 -0.543290
v 0.161660 1.852654 -0.380500
v -0.048630 1.852654 -0.215220
v -0.046720 1.852654 -0.165760
vn -0.0000 -1.0000 -0.0000
vn -0.0000 1.0000 -0.0000
vt 0.034860 1.000000
vt 0.000000 1.000000
vt 0.000000 0.954060
vt 0.051990 0.826340
vt 0.199620 0.709790
vt 0.294540 0.645590
vt 0.270970 0.549970
vt 0.447640 0.417200
vt 0.122780 0.908660
vt 0.478210 0.630690
vt 0.498720 0.756890
vt 0.362930 0.780210
vt 0.721000 0.420500
vt 0.773850 0.501670
vt 0.624410 0.542940
vt 0.457000 0.347450
vt 0.455250 0.301930
vt 0.648780 0.149820
vt 1.000000 0.236290
vt 0.910740 0.320100
vt 0.768230 0.000000
vt 0.827310 0.000000
vt 1.000000 0.179940
s 0
usemtl Lightning
f 1/1/1 2/2/1 3/3/1
f 3/3/1 4/4/1 5/5/1
f 6/6/1 7/7/1 8/8/1
f 3/3/1 5/5/1 6/6/1
f 9/9/1 1/1/1 3/3/1
f 10/10/1 11/11/1 12/12/1
f 12/12/1 9/9/1 3/3/1
f 12/12/1 3/3/1 6/6/1
f 10/10/1 12/12/1 6/6/1
f 10/10/1 6/6/1 8/8/1
f 13/13/1 14/14/1 15/15/1
f 15/15/1 10/10/1 8/8/1
f 16/16/1 17/17/1 18/18/1
f 15/15/1 8/8/1 16/16/1
f 19/19/1 20/20/1 13/13/1
f 13/13/1 15/15/1 16/16/1
f 18/18/1 21/21/1 22/22/1
f 13/13/1 16/16/1 18/18/1
f 23/23/1 19/19/1 13/13/1
f 18/18/1 22/22/1 23/23/1
f 18/18/1 23/23/1 13/13/1
f 24/3/2 25/2/2 26/1/2
f 24/3/2 26/1/2 27/9/2
f 28/5/2 29/4/2 24/3/2
f 30/8/2 31/7/2 32/6/2
f 32/6/2 28/5/2 24/3/2
f 24/3/2 27/9/2 33/12/2
f 33/12/2 34/11/2 35/10/2
f 36/15/2 37/14/2 38/13/2
f 24/3/2 33/12/2 35/10/2
f 35/10/2 36/15/2 38/13/2
f 38/13/2 39/20/2 40/19/2
f 40/19/2 41/23/2 42/22/2
f 42/22/2 43/21/2 44/18/2
f 44/18/2 45/17/2 46/16/2
f 44/18/2 46/16/2 30/8/2
f 40/19/2 42/22/2 44/18/2
f 24/3/2 35/10/2 38/13/2
f 38/13/2 40/19/2 44/18/2
f 44/18/2 30/8/2 32/6/2
f 32/6/2 24/3/2 38/13/2
f 38/13/2 44/18/2 32/6/2
o Lightning.003_1
v -0.056900 1.809774 -0.089970
v -0.248860 1.809774 0.054300
v -0.248860 1.852654 0.054300
v -0.056900 1.852654 -0.089970
v -0.023670 1.809774 0.142000
v 0.135190 1.809774 0.046650
v 0.135190 1.852654 0.046650
v -0.023670 1.852654 0.142000
v -0.248860 1.809774 0.054300
v -0.223250 1.809774 0.158200
v -0.223250 1.852654 0.158200
v -0.248860 1.852654 0.054300
v 0.543290 1.809774 -0.286540
v 0.543290 1.809774 -0.347770
v 0.543290 1.852654 -0.347770
v 0.543290 1.852654 -0.286540
v -0.505420 1.809775 0.543290
v -0.409890 1.809775 0.444050
v -0.409890 1.852654 0.444050
v -0.505420 1.852654 0.543290
v -0.046720 1.809774 -0.165760
v -0.056900 1.809774 -0.089970
v -0.056900 1.852654 -0.089970
v -0.046720 1.852654 -0.165760
v -0.001390 1.809774 0.279130
v -0.023670 1.809774 0.142000
v -0.023670 1.852654 0.142000
v -0.001390 1.852654 0.279130
v -0.543290 1.809775 0.493380
v -0.543290 1.809775 0.543290
v -0.543290 1.852654 0.543290
v -0.543290 1.852654 0.493380
v 0.543290 1.809774 -0.347770
v 0.355650 1.809774 -0.543290
v 0.355650 1.852654 -0.543290
v 0.543290 1.852654 -0.347770
v -0.048630 1.809774 -0.215220
v -0.046720 1.809774 -0.165760
v -0.046720 1.852654 -0.165760
v -0.048630 1.852654 -0.215220
v -0.148940 1.809774 0.304470
v -0.001390 1.809774 0.279130
v -0.001390 1.852654 0.279130
v -0.148940 1.852654 0.304470
v 0.355650 1.809774 -0.543290
v 0.291450 1.809774 -0.543290
v 0.291450 1.852654 -0.543290
v 0.355650 1.852654 -0.543290
v 0.446300 1.809774 -0.195470
v 0.543290 1.809774 -0.286540
v 0.543290 1.852654 -0.286540
v 0.446300 1.852654 -0.195470
v -0.543290 1.809775 0.543290
v -0.505420 1.809775 0.543290
v -0.505420 1.852654 0.543290
v -0.543290 1.852654 0.543290
v 0.161660 1.809774 -0.380500
v -0.048630 1.809774 -0.215220
v -0.048630 1.852654 -0.215220
v 0.161660 1.852654 -0.380500
v -0.409890 1.809775 0.444050
v -0.148940 1.809774 0.304470
v -0.148940 1.852654 0.304470
v -0.409890 1.852654 0.444050
v -0.486800 1.809774 0.354590
v -0.543290 1.809775 0.493380
v -0.543290 1.852654 0.493380
v -0.486800 1.852654 0.354590
v 0.240140 1.809774 -0.086380
v 0.446300 1.809774 -0.195470
v 0.446300 1.852654 -0.195470
v 0.240140 1.852654 -0.086380
v 0.291450 1.809774 -0.543290
v 0.161660 1.809774 -0.380500
v 0.161660 1.852654 -0.380500
v 0.291450 1.852654 -0.543290
v -0.326390 1.809774 0.227960
v -0.486800 1.809774 0.354590
v -0.486800 1.852654 0.354590
v -0.326390 1.852654 0.227960
v 0.297560 1.809774 0.001810
v 0.240140 1.809774 -0.086380
v 0.240140 1.852654 -0.086380
v 0.297560 1.852654 0.001810
v -0.223250 1.809774 0.158200
v -0.326390 1.809774 0.227960
v -0.326390 1.852654 0.227960
v -0.223250 1.852654 0.158200
v 0.135190 1.809774 0.046650
v 0.297560 1.809774 0.001810
v 0.297560 1.852654 0.001810
v 0.135190 1.852654 0.046650
vn -0.6008 -0.0000 -0.7994
vn 0.5146 -0.0000 0.8574
vn -0.9709 -0.0000 0.2393
vn 1.0000 -0.0000 -0.0000
vn 0.7204 -0.0000 0.6935
vn -0.9911 -0.0000 -0.1331
vn 0.9871 -0.0000 -0.1604
vn -1.0000 -0.0000 -0.0000
vn 0.7215 -0.0000 -0.6924
vn -0.9993 -0.0000 0.0386
vn 0.1693 -0.0000 0.9856
vn -0.0000 -0.0000 -1.0000
vn 0.6845 -0.0000 0.7290
vn -0.0000 -0.0000 1.0000
vn -0.6179 -0.0000 -0.7862
vn 0.4717 -0.0000 0.8818
vn -0.9262 -0.0000 -0.3770
vn 0.4677 -0.0000 0.8839
vn -0.7819 -0.0000 -0.6234
vn -0.6196 -0.0000 -0.7849
vn 0.8380 -0.0000 -0.5456
vn -0.5602 -0.0000 -0.8283
vn 0.2662 -0.0000 0.9639
vt 0.085940 -0.866910
vt 0.085940 -1.276840
vt 0.012750 -1.276840
vt 0.012750 -0.866910
vt 0.085940 2.245630
vt 0.085940 1.929340
vt 0.012750 1.929340
vt 0.012750 2.245630
vt 0.085940 -1.459520
vt 0.012750 -1.459520
vt 0.085940 0.836860
vt 0.085940 0.732330
vt 0.012750 0.732330
vt 0.012750 0.836860
vt 0.085950 3.478690
vt 0.085950 3.243530
vt 0.012750 3.243530
vt 0.012750 3.478690
vt 0.085940 -0.736370
vt 0.012750 -0.736370
vt 0.085940 2.482780
vt 0.012750 2.482780
vt 0.085940 -2.276750
vt 0.085940 -2.361960
vt 0.012750 -2.361960
vt 0.012750 -2.276750
vt 0.085940 0.269720
vt 0.012750 0.269720
vt 0.085940 -0.651880
vt 0.012750 -0.651880
vt 0.085950 2.738350
vt 0.012750 2.738350
vt 0.085940 0.160120
vt 0.012750 0.160120
vt 0.085940 1.063970
vt 0.012750 1.063970
vt 0.085950 3.543350
vt 0.012750 3.543350
vt 0.085940 -0.195290
vt 0.012750 -0.195290
vt 0.085940 -2.020950
vt 0.012750 -2.020950
vt 0.085940 1.462150
vt 0.012750 1.462150
vt 0.085940 -1.672080
vt 0.012750 -1.672080
vt 0.085940 1.641790
vt 0.012750 1.641790
s 0
usemtl Boulder1
f 47/24/3 48/25/3 49/26/3
f 47/24/3 49/26/3 50/27/3
f 51/28/4 52/29/4 53/30/4
f 51/28/4 53/30/4 54/31/4
f 55/25/5 56/32/5 57/33/5
f 55/25/5 57/33/5 58/26/5
f 59/34/6 60/35/6 61/36/6
f 59/34/6 61/36/6 62/37/6
f 63/38/7 64/39/7 65/40/7
f 63/38/7 65/40/7 66/41/7
f 67/42/8 68/24/8 69/27/8
f 67/42/8 69/27/8 70/43/8
f 71/44/9 72/28/9 73/31/9
f 71/44/9 73/31/9 74/45/9
f 75/46/10 76/47/10 77/48/10
f 75/46/10 77/48/10 78/49/10
f 79/35/11 80/50/11 81/51/11
f 79/35/11 81/51/11 82/36/11
f 83/52/12 84/42/12 85/43/12
f 83/52/12 85/43/12 86/53/12
f 87/54/13 88/44/13 89/45/13
f 87/54/13 89/45/13 90/55/13
f 91/50/14 92/56/14 93/57/14
f 91/50/14 93/57/14 94/51/14
f 95/58/15 96/34/15 97/37/15
f 95/58/15 97/37/15 98/59/15
f 99/60/16 100/38/16 101/41/16
f 99/60/16 101/41/16 102/61/16
f 103/62/17 104/52/17 105/53/17
f 103/62/17 105/53/17 106/63/17
f 107/39/18 108/54/18 109/55/18
f 107/39/18 109/55/18 110/40/18
f 111/64/19 112/46/19 113/49/19
f 111/64/19 113/49/19 114/65/19
f 115/66/20 116/58/20 117/59/20
f 115/66/20 117/59/20 118/67/20
f 119/56/21 120/62/21 121/63/21
f 119/56/21 121/63/21 122/57/21
f 123/68/22 124/64/22 125/65/22
f 123/68/22 125/65/22 126/69/22
f 127/70/23 128/66/23 129/67/23
f 127/70/23 129/67/23 130/71/23
f 131/32/24 132/68/24 133/69/24
f 131/32/24 133/69/24 134/33/24
f 135/29/25 136/70/25 137/71/25
f 135/29/25 137/71/25 138/30/25
