# This file uses centimeters as units for non-parametric coordinates.

v -11.522896 -0.500000 0.500000
v 11.522896 -0.500000 0.500000
v -11.522896 -0.300000 0.500000
v 11.522896 -0.300000 0.500000
v -11.522896 -0.100000 0.500000
v 11.522896 -0.100000 0.500000
v -11.522896 0.100000 0.500000
v 11.522896 0.100000 0.500000
v -11.522896 0.300000 0.500000
v 11.522896 0.300000 0.500000
v -11.522896 0.300000 -0.500000
v 11.522896 0.300000 -0.500000
v -11.522896 0.100000 -0.500000
v 11.522896 0.100000 -0.500000
v -11.522896 -0.100000 -0.500000
v 11.522896 -0.100000 -0.500000
v -11.522896 -0.300000 -0.500000
v 11.522896 -0.300000 -0.500000
v -11.522896 -0.500000 -0.500000
v 11.522896 -0.500000 -0.500000
v -11.522896 0.500000 0.400010
v -11.522896 0.400010 0.500000
v 11.522896 0.500000 0.400010
v 11.522896 0.400010 0.500000
v -11.522896 0.400010 -0.500000
v -11.522896 0.500000 -0.400010
v 11.522896 0.400010 -0.500000
v 11.522896 0.500000 -0.400010
vt 0.375000 0.000000
vt 0.625000 0.000000
vt 0.375000 0.050000
vt 0.625000 0.050000
vt 0.375000 0.100000
vt 0.625000 0.100000
vt 0.375000 0.150000
vt 0.625000 0.150000
vt 0.375000 0.200000
vt 0.625000 0.550000
vt 0.375000 0.600000
vt 0.625000 0.600000
vt 0.375000 0.650000
vt 0.625000 0.650000
vt 0.375000 0.700000
vt 0.625000 0.700000
vt 0.375000 0.750000
vt 0.625000 0.750000
vt 0.375000 1.000000
vt 0.625000 1.000000
vt 0.875000 0.000000
vt 0.875000 0.050000
vt 0.875000 0.100000
vt 0.875000 0.150000
vt 0.125000 0.000000
vt 0.125000 0.050000
vt 0.125000 0.100000
vt 0.125000 0.150000
vt 0.125000 0.200000
vt 0.350002 0.250000
vt 0.149997 0.250000
vt 0.125000 0.225002
vt 0.625000 0.200000
vt 0.875000 0.200000
vt 0.875000 0.225002
vt 0.850002 0.250000
vt 0.649997 0.250000
vt 0.625000 0.225002
vt 0.375000 0.524997
vt 0.375000 0.550000
vt 0.375000 0.274998
vt 0.625000 0.475002
vt 0.375000 0.225002
vt 0.625000 0.274998
vt 0.375000 0.475002
vt 0.625000 0.524997
vn 0.000000 0.000000 1.000000
vn 0.000000 0.000000 1.000000
vn 0.000000 0.000000 1.000000
vn 0.000000 0.000000 1.000000
vn 0.000000 0.000000 1.000000
vn 0.000000 0.000000 1.000000
vn 0.000000 0.000000 1.000000
vn 0.000000 0.000000 1.000000
vn 0.000000 0.000000 1.000000
vn 0.000000 0.000000 1.000000
vn 0.000000 0.000000 1.000000
vn 0.000000 0.000000 1.000000
vn 0.000000 1.000000 0.000000
vn 0.000000 1.000000 0.000000
vn 0.000000 1.000000 0.000000
vn 0.000000 1.000000 0.000000
vn 0.000000 0.000000 -1.000000
vn 0.000000 0.000000 -1.000000
vn 0.000000 0.000000 -1.000000
vn 0.000000 0.000000 -1.000000
vn 0.000000 0.000000 -1.000000
vn 0.000000 0.000000 -1.000000
vn 0.000000 0.000000 -1.000000
vn 0.000000 0.000000 -1.000000
vn 0.000000 0.000000 -1.000000
vn 0.000000 0.000000 -1.000000
vn 0.000000 0.000000 -1.000000
vn 0.000000 0.000000 -1.000000
vn 0.000000 -1.000000 0.000000
vn 0.000000 -1.000000 0.000000
vn 0.000000 -1.000000 0.000000
vn 0.000000 -1.000000 0.000000
vn 1.000000 0.000000 0.000000
vn 1.000000 0.000000 0.000000
vn 1.000000 0.000000 0.000000
vn 1.000000 0.000000 0.000000
vn 1.000000 0.000000 0.000000
vn 1.000000 0.000000 0.000000
vn 1.000000 0.000000 0.000000
vn 1.000000 0.000000 0.000000
vn 1.000000 -0.000001 0.000000
vn 1.000000 -0.000001 0.000000
vn 1.000000 -0.000002 0.000000
vn 1.000000 -0.000002 0.000000
vn 1.000000 -0.000002 0.000000
vn 1.000000 -0.000002 0.000000
vn -1.000000 0.000000 0.000000
vn -1.000000 0.000000 0.000000
vn -1.000000 0.000000 0.000000
vn -1.000000 0.000000 0.000000
vn -1.000000 0.000000 0.000000
vn -1.000000 0.000000 0.000000
vn -1.000000 0.000000 0.000000
vn -1.000000 0.000000 0.000000
vn -1.000000 -0.000001 0.000000
vn -1.000000 -0.000001 0.000000
vn -1.000000 -0.000002 0.000000
vn -1.000000 -0.000002 0.000000
vn -1.000000 -0.000002 0.000000
vn -1.000000 -0.000002 0.000000
vn 0.000000 0.707107 0.707107
vn 0.000000 0.707107 0.707107
vn 0.000000 0.707107 0.707107
vn 0.000000 0.707107 0.707107
vn 0.000000 0.707107 -0.707107
vn 0.000000 0.707107 -0.707107
vn 0.000000 0.707107 -0.707107
vn 0.000000 0.707107 -0.707107
s 1
f 1/1/1 2/2/2 4/4/3 3/3/4
f 3/3/4 4/4/3 6/6/5 5/5/6
f 5/5/6 6/6/5 8/8/7 7/7/8
f 7/7/8 8/8/7 10/33/9 9/9/10
f 9/9/10 10/33/9 24/38/11 22/43/12
s off
f 21/41/13 23/44/14 28/42/15 26/45/16
s 2
f 25/39/17 27/46/18 12/10/19 11/40/20
f 11/40/20 12/10/19 14/12/21 13/11/22
f 13/11/22 14/12/21 16/14/23 15/13/24
f 15/13/24 16/14/23 18/16/25 17/15/26
f 17/15/26 18/16/25 20/18/27 19/17/28
s off
f 19/17/29 20/18/30 2/20/31 1/19/32
s 3
f 2/2/33 20/21/34 18/22/35 4/4/36
f 4/4/36 18/22/35 16/23/37 6/6/38
f 6/6/38 16/23/37 14/24/39 8/8/40
f 8/8/40 14/24/39 12/34/41 10/33/42
f 10/33/42 12/34/41 27/35/43 28/36/44 23/37/45 24/38/46
s 4
f 19/25/47 1/1/48 3/3/49 17/26/50
f 17/26/50 3/3/49 5/5/51 15/27/52
f 15/27/52 5/5/51 7/7/53 13/28/54
f 13/28/54 7/7/53 9/9/55 11/29/56
f 11/29/56 9/9/55 22/43/57 21/30/58 26/31/59 25/32/60
s off
f 21/41/61 22/43/62 24/38/63 23/44/64
f 25/39/65 26/45/66 28/42/67 27/46/68
