# 3ds Max Wavefront OBJ Exporter v0.97b - (c)2007 guruware
# File Created: 18.03.2018 14:25:05

#
# object Pillar_LongCurve
#

v  -1000.0127 -232.8955 -313.6003
v  -978.3977 -1428.1763 23.5371
v  -932.2102 -1428.1763 105.9411
v  -858.1287 354.5432 -52.3058
v  -882.3811 -232.8955 -477.8069
v  -944.8633 -1428.1763 -53.9566
v  845.8149 -182.5156 252.3896
v  810.5439 -182.5156 499.2478
v  546.0564 -1428.1763 409.8846
v  612.7249 -1428.1763 136.4837
v  -403.4670 -1428.6760 -326.9961
v  -497.5996 -1428.1763 -339.5917
v  -364.8533 -232.8955 -656.2103
v  -245.9900 -161.4727 -639.5531
v  679.3134 -182.5156 -239.0645
v  764.4358 -182.5156 -56.2107
v  442.0847 -1428.1763 -204.2453
v  355.5718 -1428.1763 -306.4287
v  -768.3840 -1428.1763 188.1412
v  -748.7556 354.5432 186.2074
v  -13.2612 353.6191 -440.5177
v  125.0930 355.4673 -347.3765
v  -73.3240 -1425.0313 -209.7884
v  -153.3311 -1431.3213 -223.5423
v  -107.5029 -1428.1763 442.1484
v  350.6123 -77.0708 566.7367
v  32.6453 288.2911 467.6642
v  323.6741 136.6579 -287.6460
v  226.7319 -1428.1763 -294.1891
v  619.1926 -182.5156 659.7018
v  296.8215 -1428.1763 597.5488
v  -1003.7014 1538.8862 -636.2345
v  -833.5908 1538.8862 -783.1793
v  -929.3025 354.5432 -603.7799
v  -1070.9807 354.5432 -437.2218
v  -218.9954 1599.4056 -816.4191
v  -353.2939 354.5432 -744.1405
v  -240.6018 354.3868 -689.7932
v  -114.1150 1599.3950 -749.0765
v  66.9351 1599.3418 -501.5869
v  157.6047 1599.4690 -333.2822
v  358.7944 1593.4547 -203.9704
v  565.1980 1587.0568 -176.2682
v  606.1970 768.7442 -214.5548
v  300.2451 590.0259 -197.8651
v  973.4478 1574.8859 -76.1416
v  1064.8087 1544.0383 188.8568
v  750.0190 768.7442 -32.9436
v  1088.9366 1544.0383 518.0818
v  907.4990 768.7442 269.3388
v  978.5344 1574.8859 775.5739
v  923.7605 768.7442 539.2018
v  602.3867 1587.0568 816.2485
v  724.9646 768.7442 741.6619
v  191.4714 1590.1226 711.0886
v  312.5757 652.8389 586.2297
v  -833.9861 1599.4054 94.9796
v  -1080.4514 1538.8862 -352.7346
v  -998.7222 1626.5427 -650.9636
v  -826.5071 1626.5427 -796.4569
v  -209.0554 1691.5409 -821.7689
v  -104.7532 1691.5409 -753.4640
v  72.8706 1691.5409 -506.1070
v  179.9143 1691.5409 -334.2710
v  377.1511 1691.5409 -203.7056
v  579.3494 1691.5409 -174.6698
v  995.1702 1678.4690 -65.8972
v  1082.6487 1645.3386 205.2729
v  1096.9066 1645.3386 536.4927
v  977.1296 1678.4690 793.0674
v  587.8560 1691.5409 821.7689
v  169.5308 1691.5409 711.0612
v  -840.2937 1691.5409 88.2278
v  -1096.9065 1626.5427 -374.9693
v  -828.6240 -1552.3220 24.0905
v  -768.2249 -1565.5730 88.8219
v  -808.1978 -1534.0090 -58.5570
v  463.8123 -1509.8696 355.6639
v  514.9768 -1512.2915 147.6578
v  354.9988 -1515.5806 -146.7739
v  320.5369 -1534.6589 -219.4878
v  -506.1650 -1619.9778 -244.0467
v  -671.1384 -1548.8694 149.5149
v  -121.7361 -1589.4707 -125.3872
v  -233.9719 -1613.3887 -170.5237
v  -98.3174 -1533.5889 369.5923
v  252.1321 -1524.2402 504.2348
v  247.7932 -1608.3792 -199.0766
v  -448.1409 -1613.9351 -252.1438
v  239.6858 -1658.4600 333.0043
v  235.1467 -1661.7490 -76.3541
v  -15.0679 -1678.0491 266.2993
v  -431.4709 -1710.0684 157.2677
v  -603.8625 -1710.0684 79.5364
v  -388.4241 -1709.0884 -72.7951
v  -188.4458 -1709.0884 -35.5377
v  -676.3472 -1680.4490 -6.2579
v  -484.1021 -1709.0884 -113.3168
v  -1022.5471 1645.0699 -377.4363
v  -932.6418 1645.0699 -629.9585
v  -768.2595 1710.0684 52.5495
v  589.9478 1710.0684 740.9193
v  178.4431 1710.0684 638.9735
v  923.9958 1696.9963 724.4268
v  1029.2565 1663.8660 520.5565
v  1011.6863 1663.8660 220.3765
v  929.1571 1696.9963 -5.6564
v  574.4604 1710.0684 -98.2219
v  363.7744 1710.0684 -126.6589
v  0.8857 1710.0684 -479.8634
v  158.5586 1710.0684 -256.6616
v  -145.5437 1710.0684 -691.4141
v  -229.2703 1710.0684 -748.0752
v  -814.1084 1645.0699 -726.7012
v  -489.5042 1701.4084 47.6631
v  -729.8079 1663.6619 -406.7343
v  585.5178 1701.4084 500.8947
v  213.0928 1701.4084 456.1193
v  579.0837 1669.5938 152.2836
v  244.1482 1669.5938 50.6254
v  -77.8689 1669.5938 -148.2089
v  -304.6353 1690.6646 -449.2861
v  -291.7046 1701.4084 228.4715
v  -45.7727 1701.4084 388.3249
v  -496.3635 1710.0684 295.3582
v  -158.2053 1710.0684 541.6896
v  -556.2065 1691.5409 337.8151
v  -196.3491 1691.5409 599.2556
v  -548.7439 1596.4789 340.9608
v  -186.0566 1593.4219 600.0609
v  -435.5078 339.3994 299.5591
# 131 vertices

vn -0.9974 -0.0143 0.0708
vn -0.9887 -0.0157 0.1488
vn -0.8468 0.0325 0.5309
vn -0.8926 -0.0012 0.4508
vn -0.4758 -0.2164 -0.8525
vn -0.5538 -0.2452 -0.7957
vn 0.9806 -0.1317 -0.1449
vn 0.8640 -0.1710 0.4736
vn 0.8126 -0.2557 0.5237
vn 0.9610 -0.2369 -0.1431
vn 0.5395 -0.2351 -0.8085
vn -0.3434 -0.2640 -0.9013
vn -0.2554 -0.2272 -0.9398
vn 0.5989 -0.1894 -0.7781
vn 0.4516 -0.0144 -0.8921
vn 0.9049 -0.0914 -0.4156
vn 0.8821 -0.2220 -0.4156
vn 0.3441 -0.0711 -0.9362
vn -0.4790 -0.0173 0.8777
vn -0.5907 -0.0014 0.8069
vn 0.6878 -0.1076 -0.7179
vn 0.4349 -0.0482 -0.8992
vn 0.0958 -0.1237 -0.9877
vn 0.5759 -0.1978 -0.7932
vn -0.3462 -0.0372 0.9374
vn -0.3251 0.0016 0.9457
vn -0.3648 -0.0633 0.9289
vn 0.0090 0.0125 -0.9999
vn -0.0137 -0.0540 -0.9984
vn 0.1158 -0.0805 0.9900
vn 0.0061 -0.1023 0.9947
vn -0.9672 -0.0508 -0.2489
vn -0.2742 -0.0871 -0.9577
vn -0.3551 -0.1202 -0.9271
vn -0.9890 -0.0654 -0.1325
vn -0.0070 -0.0944 -0.9955
vn -0.0822 -0.1176 -0.9897
vn 0.6703 -0.0971 -0.7357
vn 0.7046 -0.0964 -0.7030
vn 0.7680 -0.0804 -0.6354
vn 0.6773 -0.0409 -0.7346
vn 0.3409 -0.0090 -0.9401
vn 0.1205 0.0297 -0.9923
vn 0.4311 -0.0111 -0.9022
vn 0.3301 0.0288 -0.9435
vn 0.6741 -0.1436 -0.7245
vn 0.9185 -0.2231 -0.3266
vn 0.9039 -0.1102 -0.4133
vn 0.9793 -0.2024 -0.0038
vn 0.9795 -0.1299 -0.1542
vn 0.6666 -0.1857 0.7219
vn 0.8447 -0.1606 0.5106
vn -0.0546 -0.1505 0.9871
vn 0.0793 -0.1384 0.9872
vn -0.2652 -0.1391 0.9541
vn -0.2861 -0.1172 0.9510
vn -0.7462 -0.0314 0.6649
vn -0.9451 -0.0324 0.3252
vn -0.7690 0.4138 -0.4872
vn -0.2046 0.3995 -0.8936
vn 0.0186 0.4700 -0.8825
vn 0.6808 0.4052 -0.6102
vn 0.7336 0.4694 -0.4914
vn 0.5915 0.5357 -0.6027
vn 0.2830 0.5691 -0.7720
vn 0.1957 0.4949 -0.8466
vn 0.5950 0.4098 -0.6915
vn 0.9179 0.3725 -0.1368
vn 0.9183 0.3632 0.1577
vn 0.4442 0.3611 0.8200
vn -0.0880 0.4438 0.8918
vn -0.2366 0.4808 0.8443
vn -0.7003 0.5326 0.4752
vn -0.8932 0.4306 0.1294
vn -0.6325 -0.7687 0.0952
vn -0.4812 -0.6335 0.6059
vn -0.5306 -0.5400 -0.6533
vn 0.5126 -0.7803 0.3583
vn 0.5774 -0.8142 -0.0612
vn 0.5777 -0.7916 -0.1991
vn 0.4374 -0.6819 -0.5863
vn -0.4404 -0.5585 -0.7029
vn -0.3096 -0.5234 0.7939
vn -0.0308 -0.6383 -0.7692
vn 0.2911 -0.5912 -0.7522
vn -0.2602 -0.5688 0.7803
vn 0.0425 -0.7494 0.6607
vn -0.0240 -0.6394 -0.7685
vn 0.2388 -0.5674 -0.7880
vn 0.2443 -0.9232 0.2968
vn 0.2876 -0.9363 -0.2015
vn -0.0575 -0.9140 0.4017
vn -0.1381 -0.8354 0.5319
vn -0.2642 -0.8935 0.3630
vn 0.0708 -0.9708 -0.2294
vn 0.0816 -0.9905 -0.1106
vn -0.4752 -0.8361 -0.2741
vn -0.2059 -0.8837 -0.4204
vn -0.1096 0.9920 -0.0626
vn -0.0997 0.9929 -0.0646
vn -0.0656 0.9968 -0.0459
vn 0.0240 0.9994 0.0264
vn -0.0133 0.9990 0.0421
vn 0.0931 0.9957 -0.0013
vn 0.1018 0.9936 -0.0490
vn 0.0785 0.9969 0.0067
vn 0.0519 0.9969 0.0588
vn 0.0005 0.9978 0.0659
vn -0.0431 0.9937 0.1030
vn -0.0177 0.9990 0.0407
vn -0.0527 0.9952 0.0828
vn 0.0151 0.9998 -0.0125
vn -0.0800 0.9951 -0.0587
vn -0.0960 0.9928 -0.0713
vn 0.0107 0.9988 -0.0480
vn -0.0425 0.9983 -0.0399
vn 0.0365 0.9973 -0.0630
vn 0.0143 0.9978 -0.0645
vn 0.0154 0.9998 0.0105
vn -0.0064 1.0000 0.0074
vn -0.0083 1.0000 0.0034
vn -0.0452 0.9990 0.0046
vn 0.0374 0.9980 -0.0514
vn 0.0254 0.9983 -0.0533
vn -0.0341 0.9984 0.0448
vn -0.0285 0.9979 0.0581
vn -0.5382 0.4995 0.6788
vn -0.4122 0.4457 0.7947
vn -0.4948 -0.0738 0.8659
vn -0.3886 -0.1242 0.9130
vn -0.4074 -0.0309 0.9127
# 131 vertex normals

vt 0.3295 0.6525 0.0000
vt 0.3845 0.4540 0.0000
vt 0.3961 0.4531 0.0000
vt 0.3774 0.7516 0.0000
vt 0.2962 0.6493 0.0000
vt 0.3741 0.4520 0.0000
vt 0.7344 0.6562 0.0000
vt 0.6966 0.6650 0.0000
vt 0.6588 0.4546 0.0000
vt 0.7023 0.4456 0.0000
vt 0.2735 0.4361 0.0000
vt 0.2884 0.4397 0.0000
vt 0.2079 0.6306 0.0000
vt 0.1864 0.6372 0.0000
vt 0.8118 0.6315 0.0000
vt 0.7825 0.6416 0.0000
vt 0.7607 0.4258 0.0000
vt 0.7801 0.4204 0.0000
vt 0.4226 0.4513 0.0000
vt 0.4188 0.7517 0.0000
vt 0.1056 0.6969 0.0000
vt 0.0801 0.6882 0.0000
vt 0.2189 0.4189 0.0000
vt 0.2322 0.4213 0.0000
vt 0.5399 0.4554 0.0000
vt 0.6111 0.6846 0.0000
vt 0.5551 0.7443 0.0000
vt 0.8847 0.6609 0.0000
vt 0.7976 0.4124 0.0000
vt 0.8442 0.3925 0.0000
vt 0.9292 0.6833 0.0000
vt 0.6574 0.6683 0.0000
vt 0.6100 0.4585 0.0000
vt 0.2546 0.9416 0.0000
vt 0.2171 0.9368 0.0000
vt 0.2741 0.7455 0.0000
vt 0.3076 0.7492 0.0000
vt 0.1152 0.9235 0.0000
vt 0.1788 0.7245 0.0000
vt 0.1592 0.7175 0.0000
vt 0.0960 0.9168 0.0000
vt 0.0479 0.8997 0.0000
vt 0.0181 0.8897 0.0000
vt 0.9580 0.8949 0.0000
vt 0.9253 0.9056 0.0000
vt 0.8676 0.7802 0.0000
vt 0.9073 0.7347 0.0000
vt 0.8601 0.9294 0.0000
vt 0.8155 0.9380 0.0000
vt 0.8287 0.7936 0.0000
vt 0.7639 0.9505 0.0000
vt 0.7725 0.8112 0.0000
vt 0.7204 0.9622 0.0000
vt 0.7270 0.8225 0.0000
vt 0.6594 0.9644 0.0000
vt 0.6796 0.8274 0.0000
vt 0.5888 0.9651 0.0000
vt 0.6052 0.8065 0.0000
vt 0.3866 0.9588 0.0000
vt 0.3015 0.9452 0.0000
vt 0.2496 0.9559 0.0000
vt 0.2129 0.9508 0.0000
vt 0.1108 0.9370 0.0000
vt 0.0917 0.9319 0.0000
vt 0.0439 0.9151 0.0000
vt 0.0117 0.9048 0.0000
vt 0.9613 0.9122 0.0000
vt 0.9283 0.9232 0.0000
vt 0.8620 0.9456 0.0000
vt 0.8173 0.9561 0.0000
vt 0.7641 0.9683 0.0000
vt 0.7201 0.9783 0.0000
vt 0.6573 0.9821 0.0000
vt 0.5852 0.9824 0.0000
vt 0.3839 0.9738 0.0000
vt 0.2971 0.9597 0.0000
vt 0.3864 0.4235 0.0000
vt 0.4083 0.4208 0.0000
vt 0.3636 0.4258 0.0000
vt 0.6555 0.4337 0.0000
vt 0.6966 0.4251 0.0000
vt 0.7540 0.4040 0.0000
vt 0.7715 0.3997 0.0000
vt 0.3010 0.4066 0.0000
vt 0.4334 0.4255 0.0000
vt 0.2316 0.3896 0.0000
vt 0.2520 0.3928 0.0000
vt 0.5382 0.4334 0.0000
vt 0.6052 0.4369 0.0000
vt 0.7808 0.3823 0.0000
vt 0.8417 0.3598 0.0000
vt 0.2891 0.4053 0.0000
vt 0.3855 0.0700 0.0000
vt 0.4308 0.0319 0.0000
vt 0.4454 0.0974 0.0000
vt 0.4186 0.1168 0.0000
vt 0.4736 0.0322 0.0000
vt 0.4452 0.1190 0.0000
vt 0.4287 0.1274 0.0000
vt 0.3875 0.0339 0.0000
vt 0.4162 0.0000 0.0000
vt 0.4810 0.0004 0.0000
vt 0.5446 0.0338 0.0000
vt 0.5741 0.0375 0.0000
vt 0.5470 0.0716 0.0000
vt 0.5132 0.0754 0.0000
vt 0.5895 0.0454 0.0000
vt 0.5641 0.0718 0.0000
vt 0.5690 0.0998 0.0000
vt 0.5289 0.1008 0.0000
vt 0.5072 0.1021 0.0000
vt 0.5853 0.0082 0.0000
vt 0.6051 0.0192 0.0000
vt 0.6195 0.0302 0.0000
vt 0.5789 0.0938 0.0000
vt 0.6228 0.0481 0.0000
vt 0.2963 0.9714 0.0000
vt 0.2450 0.9667 0.0000
vt 0.3851 0.9870 0.0000
vt 0.6575 0.9958 0.0000
vt 0.5832 0.9950 0.0000
vt 0.7207 0.9900 0.0000
vt 0.7664 0.9800 0.0000
vt 0.8204 0.9685 0.0000
vt 0.8665 0.9573 0.0000
vt 0.9299 0.9364 0.0000
vt 0.9636 0.9258 0.0000
vt 0.0432 0.9286 0.0000
vt 0.0000 0.9121 0.0000
vt 0.0868 0.9434 0.0000
vt 0.1088 0.9488 0.0000
vt 0.2133 0.9624 0.0000
vt 0.0843 0.0147 0.0000
vt 0.1232 0.0403 0.0000
vt 0.0487 0.0833 0.0000
vt 0.0097 0.0532 0.0000
vt 0.2702 0.0162 0.0000
vt 0.3374 0.0384 0.0000
vt 0.3154 0.0719 0.0000
vt 0.2588 0.0451 0.0000
vt 0.3831 0.0704 0.0000
vt 0.3799 0.1090 0.0000
vt 0.3507 0.1497 0.0000
vt 0.2835 0.1208 0.0000
vt 0.2271 0.1054 0.0000
vt 0.1639 0.1047 0.0000
vt 0.1050 0.1272 0.0000
vt 0.3187 0.1746 0.0000
vt 0.2603 0.1563 0.0000
vt 0.2281 0.1417 0.0000
vt 0.1876 0.1417 0.0000
vt 0.1455 0.1589 0.0000
vt 0.0081 0.1209 0.0000
vt 0.0892 0.1762 0.0000
vt 0.0000 0.0968 0.0000
vt 0.1060 0.1757 0.0000
vt 0.9956 0.8815 0.0000
vt 0.9984 0.8967 0.0000
vt 1.0000 0.9101 0.0000
vt 0.1672 0.0324 0.0000
vt 0.2162 0.0317 0.0000
vt 0.1443 0.0047 0.0000
vt 0.2140 0.0000 0.0000
vt 0.4494 0.9899 0.0000
vt 0.4468 0.9774 0.0000
vt 0.5211 0.9808 0.0000
vt 0.5221 0.9924 0.0000
vt 0.4491 0.9612 0.0000
vt 0.5231 0.9646 0.0000
vt 0.4728 0.7506 0.0000
# 170 texture coords

o Pillar_LongCurve
g Pillar_LongCurve
s 1
f 1/1/1 2/2/2 3/3/3 4/4/4 
f 1/1/1 5/5/5 6/6/6 2/2/2 
f 7/7/7 8/8/8 9/9/9 10/10/10 
f 11/11/11 12/12/12 13/13/13 14/14/14 
f 15/15/15 16/16/16 17/17/17 18/18/18 
f 12/12/12 6/6/6 5/5/5 13/13/13 
f 16/16/16 7/7/7 10/10/10 17/17/17 
f 4/4/4 3/3/3 19/19/19 20/20/20 
f 21/21/21 22/22/22 23/23/23 24/24/24 
f 25/25/25 26/26/26 27/27/27 
f 28/28/28 29/29/29 23/30/23 22/31/22 
f 30/32/30 31/33/31 9/9/9 8/8/8 
f 15/15/15 18/18/18 29/29/29 28/28/28 
f 32/34/32 33/35/33 34/36/34 35/37/35 
f 33/35/33 36/38/36 37/39/37 34/36/34 
f 38/40/38 37/39/37 36/38/36 39/41/39 
f 39/41/39 40/42/40 21/21/21 38/40/38 
f 40/42/40 41/43/41 22/22/22 21/21/21 
f 42/44/42 43/45/43 44/46/44 45/47/45 
f 46/48/46 47/49/47 48/50/48 44/46/44 
f 47/49/47 49/51/49 50/52/50 48/50/48 
f 49/51/49 51/53/51 52/54/52 50/52/50 
f 51/53/51 53/55/53 54/56/54 52/54/52 
f 55/57/55 56/58/56 54/56/54 53/55/53 
f 57/59/57 58/60/58 4/4/4 20/20/20 
f 58/60/58 32/34/32 35/37/35 4/4/4 
f 35/37/35 34/36/34 5/5/5 1/1/1 
f 34/36/34 37/39/37 13/13/13 5/5/5 
f 14/14/14 13/13/13 37/39/37 38/40/38 
f 14/14/14 38/40/38 21/21/21 
f 44/46/44 15/15/15 28/28/28 45/47/45 
f 48/50/48 16/16/16 15/15/15 44/46/44 
f 48/50/48 50/52/50 7/7/7 16/16/16 
f 50/52/50 52/54/52 8/8/8 7/7/7 
f 54/56/54 30/32/30 8/8/8 52/54/52 
f 4/4/4 35/37/35 1/1/1 
f 14/14/14 21/21/21 24/24/24 11/11/11 
f 59/61/59 60/62/60 33/35/33 32/34/32 
f 36/38/36 33/35/33 60/62/60 61/63/61 
f 39/41/39 36/38/36 61/63/61 62/64/62 
f 40/42/40 39/41/39 62/64/62 63/65/63 
f 63/65/63 64/66/64 41/43/41 40/42/40 
f 65/67/65 66/68/66 43/45/43 42/44/42 
f 66/68/66 67/69/67 46/48/46 43/45/43 
f 67/69/67 68/70/68 47/49/47 46/48/46 
f 68/70/68 69/71/69 49/51/49 47/49/47 
f 69/71/69 70/72/70 51/53/51 49/51/49 
f 70/72/70 71/73/71 53/55/53 51/53/51 
f 71/73/71 72/74/72 55/57/55 53/55/53 
f 73/75/73 74/76/74 58/60/58 57/59/57 
f 74/76/74 59/61/59 32/34/32 58/60/58 
f 3/3/3 2/2/2 75/77/75 76/78/76 
f 6/6/6 77/79/77 75/77/75 2/2/2 
f 9/9/9 78/80/78 79/81/79 10/10/10 
f 17/17/17 80/82/80 81/83/81 18/18/18 
f 12/12/12 82/84/82 77/79/77 6/6/6 
f 17/17/17 10/10/10 79/81/79 80/82/80 
f 19/19/19 3/3/3 76/78/76 83/85/83 
f 24/24/24 23/23/23 84/86/84 85/87/85 
f 25/25/25 86/88/86 87/89/87 31/33/31 
f 88/90/88 84/91/84 23/30/23 29/29/29 
f 31/33/31 87/89/87 78/80/78 9/9/9 
f 29/29/29 18/18/18 81/83/81 88/90/88 
f 12/12/12 11/11/11 89/92/89 82/84/82 
f 11/11/11 24/24/24 85/87/85 89/92/89 
f 79/93/79 90/94/90 91/95/91 80/96/80 
f 91/95/91 90/94/90 92/97/92 
f 88/98/88 81/99/81 80/96/80 91/95/91 
f 78/100/78 87/101/87 90/94/90 79/93/79 
f 86/102/86 92/97/92 90/94/90 87/101/87 
f 93/103/93 94/104/94 95/105/95 96/106/96 
f 94/104/94 97/107/97 98/108/98 95/105/95 
f 89/109/89 85/110/85 95/105/95 98/108/98 
f 85/110/85 84/111/84 96/106/96 95/105/95 
f 83/112/83 76/113/76 94/104/94 93/103/93 
f 76/113/76 75/114/75 97/107/97 94/104/94 
f 82/115/82 98/108/98 97/107/97 77/116/77 
f 77/116/77 97/107/97 75/114/75 
f 89/109/89 98/108/98 82/115/82 
f 59/61/59 74/76/74 99/117/99 100/118/100 
f 73/75/73 101/119/101 99/117/99 74/76/74 
f 72/74/72 71/73/71 102/120/102 103/121/103 
f 71/73/71 70/72/70 104/122/104 102/120/102 
f 69/71/69 105/123/105 104/122/104 70/72/70 
f 68/70/68 106/124/106 105/123/105 69/71/69 
f 68/70/68 67/69/67 107/125/107 106/124/106 
f 66/68/66 108/126/108 107/125/107 67/69/67 
f 66/68/66 65/67/65 109/127/109 108/126/108 
f 64/66/64 63/65/63 110/128/110 111/129/111 
f 63/65/63 62/64/62 112/130/112 110/128/110 
f 113/131/113 112/130/112 62/64/62 61/63/61 
f 113/131/113 61/63/61 60/62/60 114/132/114 
f 60/62/60 59/61/59 100/118/100 114/132/114 
f 101/133/101 115/134/115 116/135/116 99/136/99 
f 103/137/103 102/138/102 117/139/117 118/140/118 
f 104/141/104 105/142/105 117/139/117 102/138/102 
f 117/139/117 105/142/105 106/143/106 119/144/119 
f 118/140/118 117/139/117 119/144/119 120/145/120 
f 115/134/115 121/146/121 122/147/122 116/135/116 
f 119/144/119 106/143/106 107/148/107 108/149/108 
f 109/150/109 120/145/120 119/144/119 108/149/108 
f 121/146/121 111/151/111 110/152/110 122/147/122 
f 114/153/114 116/135/116 122/147/122 113/154/113 
f 116/135/116 114/153/114 100/155/100 99/136/99 
f 112/156/112 113/154/113 122/147/122 110/152/110 
f 41/157/41 42/44/42 45/47/45 22/31/22 
f 64/158/64 65/67/65 42/44/42 41/157/41 
f 65/67/65 64/158/64 111/159/111 109/127/109 
f 120/145/120 109/150/109 111/151/111 121/146/121 
f 120/145/120 123/160/123 124/161/124 
f 123/160/123 125/162/125 126/163/126 124/161/124 
f 125/164/125 127/165/127 128/166/128 126/167/126 
f 128/166/128 127/165/127 129/168/129 130/169/130 
f 130/169/130 129/168/129 131/170/131 27/27/27 
f 123/160/123 120/145/120 121/146/121 115/134/115 
f 125/162/125 123/160/123 115/134/115 101/133/101 
f 127/165/127 125/164/125 101/119/101 73/75/73 
f 127/165/127 73/75/73 57/59/57 129/168/129 
f 129/168/129 57/59/57 20/20/20 131/170/131 
f 120/145/120 124/161/124 118/140/118 
f 124/161/124 126/163/126 103/137/103 118/140/118 
f 126/167/126 128/166/128 72/74/72 103/121/103 
f 72/74/72 128/166/128 130/169/130 55/57/55 
f 56/58/56 55/57/55 130/169/130 27/27/27 
f 28/28/28 22/31/22 45/47/45 
f 131/170/131 20/20/20 19/19/19 25/25/25 
f 25/25/25 19/19/19 83/85/83 86/88/86 
f 86/102/86 83/112/83 93/103/93 92/97/92 
f 92/97/92 93/103/93 96/106/96 91/95/91 
f 84/111/84 88/98/88 91/95/91 96/106/96 
f 25/25/25 27/27/27 131/170/131 
f 26/26/26 25/25/25 31/33/31 30/32/30 
f 56/58/56 26/26/26 30/32/30 54/56/54 
f 27/27/27 26/26/26 56/58/56 
f 43/45/43 46/48/46 44/46/44 
# 123 polygons - 12 triangles

