# 3ds Max Wavefront OBJ Exporter v0.97b - (c)2007 guruware
# File Created: 18.03.2018 14:34:07

#
# object Pillar_MedWide
#

v  -554.9236 847.4755 86.4545
v  -403.8806 846.0400 448.1995
v  -258.2405 926.3090 223.0099
v  -322.2007 922.9614 -28.2996
v  -12.1565 -920.5056 6.7675
v  -44.8853 -814.8232 184.0948
v  -141.4719 -778.4070 -16.6189
v  -63.5247 -889.2671 -101.2972
v  378.1951 787.6821 336.3546
v  477.2000 779.3827 208.5410
v  308.2078 883.4672 84.4211
v  197.2698 889.8647 241.0427
v  -156.4773 898.7786 -390.6260
v  -308.6748 814.4006 -529.6620
v  -396.8447 821.9551 -406.4338
v  -270.9360 904.6794 -244.4263
v  -478.7434 743.9148 -423.3934
v  -399.9861 736.9137 -549.6941
v  -400.4465 88.4180 -209.9242
v  -394.2512 89.8452 -70.5757
v  -39.1780 -882.7463 -252.2914
v  -135.3467 -770.8572 -156.6068
v  -109.3672 -764.9497 -286.8260
v  294.5649 -861.5615 -110.8788
v  246.1160 -862.7820 14.7040
v  215.8677 -953.0906 -194.5745
v  132.0674 -948.2104 -19.9810
v  83.3579 -938.8340 -245.9069
v  -664.8887 769.8433 185.1819
v  -236.3123 101.3181 314.3865
v  30.2637 -889.7632 -380.6853
v  106.5193 -913.7505 -377.8694
v  -101.9858 916.8112 320.2916
v  -117.6096 826.6949 606.2320
v  42.2449 814.9000 592.4489
v  25.3792 907.5315 316.7368
v  178.0476 -848.6802 129.9702
v  86.8606 -833.6624 182.7760
v  314.7834 873.5930 -308.9323
v  340.0618 872.7803 -199.7203
v  547.3674 760.3435 -307.8955
v  517.0337 761.5696 -403.2424
v  270.3230 -825.3074 -319.3690
v  296.0410 -827.2761 -246.3866
v  292.7727 781.6560 -608.9246
v  209.3899 864.8890 -446.9691
v  165.6057 -808.3479 -456.6978
v  42.7529 81.3391 473.6734
v  -450.4702 762.3555 563.5065
v  -92.3528 736.6929 746.0110
v  318.9456 58.6230 408.4879
v  52.3516 725.8533 723.2980
v  409.0491 45.9792 319.3616
v  438.3257 695.6770 403.3380
v  473.0566 22.7437 -13.5350
v  533.8879 687.8676 274.4095
v  482.5330 18.8335 -158.6648
v  635.2997 664.4561 -313.6443
v  295.5020 20.3350 -500.2001
v  604.6160 665.7924 -409.0343
v  234.0776 21.9443 -559.1071
v  -29.8374 44.6086 -604.4790
v  309.3684 692.7917 -654.4451
v  -83.6819 878.9242 -459.8196
v  42.7783 874.9817 -481.7148
v  -56.6086 803.6401 -711.1508
v  -156.8938 808.5140 -680.2059
v  -187.5229 727.2511 -779.5184
v  -85.2129 721.1936 -811.7347
v  -315.5635 90.4331 -542.6992
v  -372.2146 86.1536 -475.8042
v  -37.4873 -757.4790 -489.5975
v  25.0957 -739.5967 -520.4502
v  -72.7163 953.0906 19.2998
v  46.8059 912.2101 -158.8776
v  65.6731 902.1299 -322.6532
v  89.0527 942.9558 48.2246
# 77 vertices

vn -0.5033 0.8632 -0.0393
vn -0.3054 0.9057 0.2940
vn -0.1801 0.9737 0.1393
vn -0.2400 0.9686 -0.0642
vn -0.4285 -0.8615 0.2724
vn -0.3849 -0.3442 0.8564
vn -0.8512 -0.2876 0.4390
vn -0.6575 -0.7534 -0.0086
vn 0.4158 0.8252 0.3822
vn 0.6157 0.7763 0.1350
vn 0.3699 0.9277 0.0501
vn 0.2793 0.9273 0.2492
vn -0.1174 0.9766 -0.1804
vn -0.3542 0.8604 -0.3665
vn -0.4928 0.8330 -0.2516
vn -0.2190 0.9620 -0.1632
vn -0.9803 -0.1496 -0.1291
vn -0.9076 -0.0056 -0.4199
vn -0.9402 -0.2440 -0.2377
vn -0.9472 -0.3181 0.0410
vn -0.6303 -0.7495 -0.2025
vn -0.9458 -0.2985 0.1280
vn -0.9216 -0.3472 -0.1737
vn 0.9677 -0.2242 -0.1152
vn 0.9088 -0.3137 0.2750
vn 0.4511 -0.8835 -0.1259
vn 0.1588 -0.9410 0.2988
vn -0.2585 -0.9590 -0.1159
vn -0.9409 -0.2544 0.2237
vn -0.8302 -0.3624 0.4236
vn -0.4657 -0.7503 -0.4693
vn 0.1206 -0.8292 -0.5458
vn -0.0295 0.9741 0.2240
vn -0.0834 0.9000 0.4278
vn 0.3004 0.8510 0.4307
vn 0.1797 0.9504 0.2537
vn 0.8187 -0.3364 0.4654
vn 0.2499 -0.3866 0.8878
vn 0.2731 0.9469 -0.1695
vn 0.3670 0.9300 -0.0211
vn 0.6380 0.7699 0.0153
vn 0.5173 0.7556 -0.4018
vn 0.6099 -0.2351 -0.7568
vn 0.8937 -0.2036 -0.3999
vn 0.3509 0.7741 -0.5270
vn 0.2145 0.9322 -0.2915
vn 0.2882 -0.1911 -0.9383
vn -0.3636 -0.3778 0.8515
vn -0.5801 -0.2592 0.7722
vn -0.1139 -0.2311 0.9662
vn 0.1983 -0.3333 0.9217
vn 0.6429 0.0292 0.7654
vn 0.7992 -0.2004 0.5666
vn 0.8271 0.0105 0.5619
vn 0.9077 -0.2127 0.3617
vn 0.9886 -0.0908 0.1199
vn 0.9705 -0.2260 -0.0839
vn 0.9850 -0.1311 -0.1117
vn 0.9268 -0.2209 -0.3038
vn 0.6227 -0.1200 -0.7732
vn 0.5135 -0.1759 -0.8398
vn 0.2014 -0.1971 -0.9595
vn 0.3375 -0.1111 -0.9347
vn -0.0737 0.9618 -0.2636
vn 0.0976 0.9494 -0.2986
vn 0.1441 0.8213 -0.5520
vn -0.2492 0.8752 -0.4147
vn -0.7722 0.0073 -0.6353
vn 0.0292 -0.1649 -0.9859
vn -0.1582 -0.2336 -0.9594
vn -0.8804 -0.2185 -0.4209
vn -0.8558 -0.3511 -0.3799
vn -0.1449 -0.1688 -0.9749
vn -0.0168 0.9994 -0.0287
vn 0.0763 0.9927 -0.0939
vn 0.0617 0.9939 -0.0913
vn 0.1552 0.9877 0.0179
# 77 vertex normals

vt 0.2366 0.5577 0.0000
vt 0.2492 0.6572 0.0000
vt 0.1848 0.6264 0.0000
vt 0.1667 0.5629 0.0000
vt 0.4931 0.1216 0.0000
vt 0.4954 0.1718 0.0000
vt 0.4473 0.1563 0.0000
vt 0.4525 0.1147 0.0000
vt 0.6285 0.5874 0.0000
vt 0.6635 0.5614 0.0000
vt 0.7032 0.6028 0.0000
vt 0.6664 0.6356 0.0000
vt 0.0838 0.5033 0.0000
vt 0.0993 0.4488 0.0000
vt 0.1350 0.4638 0.0000
vt 0.1278 0.5210 0.0000
vt 0.1552 0.4420 0.0000
vt 0.1273 0.4206 0.0000
vt 0.2909 0.3309 0.0000
vt 0.3205 0.3499 0.0000
vt 0.4157 0.0945 0.0000
vt 0.4189 0.1401 0.0000
vt 0.3913 0.1223 0.0000
vt 0.5979 0.1383 0.0000
vt 0.5687 0.1471 0.0000
vt 0.6042 0.0994 0.0000
vt 0.5718 0.0610 0.0000
vt 0.6300 0.0708 0.0000
vt 0.2709 0.5422 0.0000
vt 0.4129 0.3970 0.0000
vt 0.5801 0.0233 0.0000
vt 0.6118 0.0200 0.0000
vt 0.6461 0.0398 0.0000
vt 0.6722 0.0702 0.0000
vt 0.6601 0.0853 0.0000
vt 0.6585 0.7140 0.0000
vt 0.5825 0.7263 0.0000
vt 0.5801 0.6851 0.0000
vt 0.6547 0.6816 0.0000
vt 0.5420 0.1597 0.0000
vt 0.5220 0.1674 0.0000
vt 0.5453 0.1127 0.0000
vt 0.2089 0.7308 0.0000
vt 0.1640 0.6684 0.0000
vt 0.8034 0.5801 0.0000
vt 0.7744 0.5810 0.0000
vt 0.7918 0.5195 0.0000
vt 0.8201 0.5146 0.0000
vt 0.6447 0.1299 0.0000
vt 0.6289 0.1351 0.0000
vt 0.8823 0.5637 0.0000
vt 0.8436 0.5975 0.0000
vt 0.6821 0.1134 0.0000
vt 0.4928 0.4111 0.0000
vt 0.3641 0.5813 0.0000
vt 0.4602 0.5990 0.0000
vt 0.5620 0.4038 0.0000
vt 0.4940 0.5884 0.0000
vt 0.5903 0.3935 0.0000
vt 0.6121 0.5558 0.0000
vt 0.6650 0.3608 0.0000
vt 0.6447 0.5397 0.0000
vt 0.6964 0.3461 0.0000
vt 0.7823 0.4925 0.0000
vt 0.7805 0.3036 0.0000
vt 0.8004 0.4873 0.0000
vt 0.7985 0.2936 0.0000
vt 0.8546 0.2606 0.0000
vt 0.8842 0.4463 0.0000
vt 0.0588 0.4964 0.0000
vt 0.0278 0.5073 0.0000
vt 0.0200 0.4413 0.0000
vt 0.0463 0.4357 0.0000
vt 0.0682 0.3719 0.0000
vt 0.0474 0.3564 0.0000
vt 0.2184 0.2807 0.0000
vt 0.2358 0.2938 0.0000
vt 0.3869 0.0687 0.0000
vt 0.3468 0.0919 0.0000
vt 0.3339 0.0800 0.0000
vt 0.9280 0.6452 0.0000
vt 0.8620 0.6372 0.0000
vt 0.7209 0.1015 0.0000
vt 0.9169 0.2238 0.0000
vt 0.9783 0.3963 0.0000
vt 0.3405 0.6075 0.0000
vt 0.4276 0.6301 0.0000
vt 0.5168 0.6203 0.0000
vt 0.4782 0.6412 0.0000
vt 0.8946 0.4706 0.0000
vt 0.9800 0.4303 0.0000
vt 0.0317 0.3887 0.0000
vt 0.0566 0.4022 0.0000
vt 0.1016 0.4381 0.0000
vt 0.1175 0.6058 0.0000
vt 0.0680 0.5803 0.0000
vt 0.0430 0.5462 0.0000
vt 0.7220 0.6571 0.0000
vt 0.7775 0.6571 0.0000
vt 0.8197 0.6424 0.0000
vt 0.7355 0.6966 0.0000
# 101 texture coords

o Pillar_MedWide
g Pillar_MedWide
s 1
f 1/1/1 2/2/2 3/3/3 4/4/4 
f 5/5/5 6/6/6 7/7/7 8/8/8 
f 9/9/9 10/10/10 11/11/11 12/12/12 
f 13/13/13 14/14/14 15/15/15 16/16/16 
f 17/17/17 18/18/18 19/19/19 20/20/20 
f 21/21/21 22/22/22 23/23/23 
f 24/24/24 25/25/25 26/26/26 
f 15/15/15 1/1/1 4/4/4 16/16/16 
f 22/22/22 21/21/21 8/8/8 7/7/7 
f 27/27/27 28/28/28 26/26/26 
f 29/29/29 17/17/17 20/20/20 30/30/30 
f 28/28/28 5/31/5 8/32/8 21/33/21 
f 28/28/28 21/33/21 31/34/31 32/35/32 
f 33/36/33 34/37/34 35/38/35 36/39/36 
f 37/40/37 38/41/38 27/42/27 
f 2/2/2 34/43/34 33/44/33 3/3/3 
f 38/41/38 6/6/6 5/5/5 27/42/27 
f 9/9/9 12/12/12 36/39/36 35/38/35 
f 25/25/25 37/40/37 27/42/27 26/26/26 
f 5/31/5 28/28/28 27/27/27 
f 32/35/32 26/26/26 28/28/28 
f 39/45/39 40/46/40 41/47/41 42/48/42 
f 26/26/26 32/35/32 43/49/43 44/50/44 
f 45/51/45 46/52/46 39/45/39 42/48/42 
f 43/49/43 32/35/32 47/53/47 
f 40/46/40 11/11/11 10/10/10 41/47/41 
f 26/26/26 44/50/44 24/24/24 
f 30/30/30 48/54/48 49/55/49 29/29/29 
f 50/56/50 49/55/49 48/54/48 51/57/51 
f 52/58/52 50/56/50 51/57/51 53/59/53 
f 54/60/54 52/58/52 53/59/53 55/61/55 
f 56/62/56 54/60/54 55/61/55 57/63/57 
f 58/64/58 56/62/56 57/63/57 59/65/59 
f 60/66/60 58/64/58 59/65/59 61/67/61 
f 61/67/61 62/68/62 63/69/63 60/66/60 
f 64/70/64 65/71/65 66/72/66 67/73/67 
f 68/74/68 69/75/69 70/76/70 71/77/71 
f 31/78/31 72/79/72 73/80/73 
f 45/51/45 66/81/66 65/82/65 46/52/46 
f 31/34/31 73/83/73 47/53/47 32/35/32 
f 62/68/62 70/84/70 69/85/69 63/69/63 
f 14/14/14 13/13/13 64/70/64 67/73/67 
f 31/78/31 21/21/21 23/23/23 72/79/72 
f 71/77/71 19/19/19 18/18/18 68/74/68 
f 6/6/6 48/54/48 30/30/30 7/7/7 
f 48/54/48 6/6/6 38/41/38 51/57/51 
f 53/59/53 51/57/51 38/41/38 37/40/37 
f 55/61/55 53/59/53 37/40/37 25/25/25 
f 55/61/55 25/25/25 24/24/24 57/63/57 
f 57/63/57 24/24/24 44/50/44 59/65/59 
f 59/65/59 44/50/44 43/49/43 61/67/61 
f 47/53/47 62/68/62 61/67/61 43/49/43 
f 73/83/73 70/84/70 62/68/62 47/53/47 
f 70/76/70 73/80/73 72/79/72 71/77/71 
f 23/23/23 19/19/19 71/77/71 72/79/72 
f 19/19/19 23/23/23 22/22/22 20/20/20 
f 20/20/20 22/22/22 7/7/7 30/30/30 
f 29/29/29 49/55/49 2/86/2 1/1/1 
f 34/87/34 2/86/2 49/55/49 50/56/50 
f 35/88/35 34/89/34 50/56/50 52/58/52 
f 54/60/54 9/9/9 35/88/35 52/58/52 
f 56/62/56 10/10/10 9/9/9 54/60/54 
f 10/10/10 56/62/56 58/64/58 41/47/41 
f 41/47/41 58/64/58 60/66/60 42/48/42 
f 63/69/63 45/90/45 42/48/42 60/66/60 
f 66/91/66 45/90/45 63/69/63 69/85/69 
f 66/92/66 69/75/69 68/74/68 67/93/67 
f 18/18/18 14/94/14 67/93/67 68/74/68 
f 15/15/15 14/94/14 18/18/18 17/17/17 
f 1/1/1 15/15/15 17/17/17 29/29/29 
f 16/16/16 4/4/4 74/95/74 75/96/75 
f 64/70/64 13/13/13 76/97/76 65/71/65 
f 13/13/13 16/16/16 75/96/75 76/97/76 
f 77/98/77 11/11/11 40/46/40 75/99/75 
f 76/100/76 75/99/75 40/46/40 39/45/39 
f 76/100/76 39/45/39 46/52/46 65/82/65 
f 75/99/75 74/101/74 77/98/77 
f 3/3/3 33/44/33 74/95/74 4/4/4 
f 36/39/36 77/98/77 74/101/74 33/36/33 
f 12/12/12 11/11/11 77/98/77 36/39/36 
# 70 polygons - 10 triangles

