# 3ds Max Wavefront OBJ Exporter v0.97b - (c)2007 guruware
# File Created: 24.01.2018 13:14:49

#
# object rock
#

v  -0.2628 -0.4365 1.5319
v  1.2602 -0.4097 1.4115
v  0.6164 0.1410 1.1295
v  -0.0876 0.0167 1.1653
v  -0.4406 1.1506 -0.2004
v  -0.4606 1.0682 -0.3580
v  -0.7361 0.8708 -0.3255
v  -0.5891 0.9725 -0.1468
v  0.2639 -1.4724 0.6874
v  1.6125 -0.8933 1.1743
v  1.5154 -0.7609 1.3142
v  -0.2778 -0.7359 1.4661
v  1.5922 -0.0652 -1.0328
v  1.4410 0.3887 -1.1521
v  1.6122 0.5298 -0.3756
v  1.8406 -0.0220 -0.2656
v  1.5917 -0.2652 -0.9436
v  1.6373 -0.8293 0.9268
v  0.3986 -1.1174 -0.6950
v  0.7295 -0.7682 -0.9050
v  0.5308 0.0244 -0.8334
v  0.7227 0.1654 0.9614
v  1.5230 -0.4045 1.2272
v  0.4529 -0.0840 -1.4391
v  0.3783 0.2405 -1.5319
v  0.3814 1.2168 -0.4008
v  -1.2642 -1.0917 -0.2186
v  -1.4975 -0.9113 -0.0466
v  -1.8406 -0.1817 -0.7576
v  -1.7311 -0.1817 -0.9444
v  0.4544 1.3755 0.4477
v  -1.7589 0.2861 -0.7156
v  -1.7035 0.2763 -0.9088
v  1.7196 -0.7285 1.0720
v  1.8244 -0.3277 -0.2171
v  -0.0083 -0.1817 -1.3856
v  -0.4923 1.1396 0.5522
v  -0.3883 0.8674 1.0022
v  -0.2651 1.0834 0.9941
v  -0.3484 1.3593 0.5430
v  -0.2547 0.0543 1.0604
v  -0.2389 -0.1987 1.1011
v  -0.9754 -1.2080 0.2904
v  -1.2317 -1.0600 0.3516
v  -0.2771 0.0806 0.7076
v  -0.3625 0.2945 0.2697
v  -1.1833 -0.6736 0.4304
v  -1.4553 -0.5233 0.0127
v  -0.3624 -0.2054 0.5814
v  -0.4798 0.0139 0.1526
v  0.3918 1.1994 0.9607
v  0.2922 1.4724 0.5105
v  0.2569 1.3153 -0.2461
v  0.5585 1.1033 0.8977
# 54 vertices

vn -0.2919 0.2853 0.9129
vn 0.1805 0.2071 0.9615
vn 0.1199 0.4336 0.8931
vn -0.0266 0.3673 0.9297
vn -0.3172 0.9484 -0.0001
vn -0.2229 0.7717 -0.5956
vn -0.3808 0.8532 -0.3565
vn -0.9737 0.0680 0.2173
vn 0.0857 -0.9808 0.1750
vn 0.3005 -0.9089 0.2891
vn 0.1115 -0.5914 0.7986
vn -0.2717 -0.5491 0.7904
vn 0.4172 -0.0156 -0.9087
vn 0.2137 0.3918 -0.8949
vn 0.7170 0.6808 0.1494
vn 0.8024 0.5413 0.2513
vn 0.5979 -0.7126 -0.3671
vn 0.5011 -0.8412 -0.2033
vn 0.0253 -0.8524 -0.5223
vn 0.1189 -0.4292 -0.8954
vn 0.3754 0.1900 -0.9072
vn 0.6662 0.5256 0.5291
vn 0.6951 0.5718 0.4359
vn 0.7786 -0.1648 -0.6054
vn 0.0997 0.6067 -0.7887
vn -0.0147 0.8274 -0.5614
vn -0.2443 -0.7898 -0.5626
vn -0.3931 -0.7017 -0.5942
vn -0.4702 -0.5246 -0.7097
vn -0.2725 -0.4967 -0.8240
vn 0.5941 0.8027 0.0525
vn -0.6680 0.6938 -0.2691
vn 0.9845 -0.0574 0.1660
vn 0.9633 -0.2652 -0.0416
vn -0.9906 -0.0161 0.1359
vn -0.9451 -0.1182 0.3046
vn -0.1422 0.4173 0.8976
vn -0.9427 -0.1157 0.3130
vn -0.6539 0.7117 0.2567
vn -0.2641 -0.9542 0.1409
vn -0.5754 -0.6223 0.5307
vn -0.9801 -0.1324 0.1476
vn -0.9694 -0.1142 0.2172
vn -0.7018 0.3954 0.5926
vn -0.6105 0.3821 0.6937
vn -0.6392 0.6772 0.3645
vn -0.5388 0.4702 0.6990
vn 0.0959 0.4395 0.8931
vn -0.0887 0.9961 0.0025
vn 0.7588 0.3857 0.5248
vn 0.4424 0.8738 -0.2017
vn -0.1762 0.7408 -0.6482
vn -0.2296 0.5031 -0.8332
vn -0.2562 0.2868 -0.9231
vn -0.2567 -0.2958 -0.9201
vn -0.2541 -0.3247 -0.9110
vn -0.2024 -0.6547 -0.7283
vn -0.3974 -0.8301 -0.3911
vn -0.5299 -0.8445 0.0771
vn -0.8083 0.5869 -0.0470
vn -0.5056 0.8494 -0.1513
vn -0.5642 0.8145 -0.1351
vn -0.2106 0.9537 -0.2146
# 63 vertex normals

vt 0.5043 0.3354 0.0000
vt 0.5312 0.1649 0.0000
vt 0.5906 0.2438 0.0000
vt 0.5697 0.3236 0.0000
vt 0.8277 0.3478 0.0000
vt 0.8469 0.3438 0.0000
vt 0.8601 0.3789 0.0000
vt 0.8311 0.3728 0.0000
vt 0.3749 0.2600 0.0000
vt 0.4760 0.1433 0.0000
vt 0.4928 0.1499 0.0000
vt 0.4663 0.3442 0.0000
vt 0.8141 0.0423 0.0000
vt 0.8157 0.0862 0.0000
vt 0.7459 0.1120 0.0000
vt 0.7109 0.0607 0.0000
vt 0.2687 0.0403 0.0000
vt 0.4548 0.1317 0.0000
vt 0.2395 0.1941 0.0000
vt 0.9459 0.0445 0.0000
vt 0.9093 0.1300 0.0000
vt 0.6067 0.2224 0.0000
vt 0.5480 0.1316 0.0000
vt 0.1274 0.1083 0.0000
vt 0.1122 0.1721 0.0000
vt 0.0727 0.1751 0.0000
vt 0.0200 0.0200 0.0000
vt 0.2446 0.3788 0.0000
vt 0.2427 0.4078 0.0000
vt 0.1295 0.4234 0.0000
vt 0.1190 0.4095 0.0000
vt 0.2143 0.1454 0.0000
vt 0.7391 0.2846 0.0000
vt 0.8240 0.2496 0.0000
vt 0.0985 0.4595 0.0000
vt 0.0770 0.4241 0.0000
vt 0.5080 0.1141 0.0000
vt 0.4726 0.1267 0.0000
vt 0.3508 0.0523 0.0000
vt 0.3520 0.0206 0.0000
vt 0.2597 0.0212 0.0000
vt 0.1151 0.2212 0.0000
vt 0.7425 0.3850 0.0000
vt 0.6687 0.3798 0.0000
vt 0.6838 0.3633 0.0000
vt 0.7440 0.3611 0.0000
vt 0.5780 0.3459 0.0000
vt 0.9771 0.4526 0.0000
vt 0.9615 0.4669 0.0000
vt 0.5532 0.3491 0.0000
vt 0.3049 0.3749 0.0000
vt 0.2997 0.4115 0.0000
vt 0.2876 0.5928 0.0000
vt 0.3220 0.6087 0.0000
vt 0.2660 0.6810 0.0000
vt 0.2081 0.6792 0.0000
vt 0.1519 0.6214 0.0000
vt 0.2345 0.5885 0.0000
vt 0.2825 0.4557 0.0000
vt 0.2252 0.4411 0.0000
vt 0.2887 0.5590 0.0000
vt 0.2377 0.5569 0.0000
vt 0.4060 0.5373 0.0000
vt 0.3920 0.5686 0.0000
vt 0.3398 0.5819 0.0000
vt 0.1357 0.5931 0.0000
vt 0.6904 0.2980 0.0000
vt 0.7385 0.2985 0.0000
vt 0.8120 0.2720 0.0000
vt 0.6848 0.2840 0.0000
vt 0.9800 0.2180 0.0000
# 71 texture coords

o rock
g rock
s 1
f 1/1/1 2/2/2 3/3/3 4/4/4 
f 5/5/5 6/6/6 7/7/7 8/8/8 
f 9/9/9 10/10/10 11/11/11 12/12/12 
f 13/13/13 14/14/14 15/15/15 16/16/16 
f 17/17/17 18/18/18 19/19/19 
f 13/13/13 20/20/20 21/21/21 14/14/14 
f 22/22/22 23/23/23 16/16/16 15/15/15 
f 21/24/21 24/25/24 25/26/25 26/27/26 
f 27/28/27 28/29/28 29/30/29 30/31/30 
f 21/24/21 20/32/20 24/25/24 
f 31/33/31 15/15/15 26/34/26 
f 15/15/15 14/14/14 26/34/26 
f 26/34/26 14/14/14 21/21/21 
f 18/18/18 10/10/10 9/9/9 19/19/19 
f 32/35/32 33/36/25 30/31/30 29/30/29 
f 12/12/12 11/11/11 2/2/2 1/1/1 
f 23/37/23 34/38/33 35/39/34 16/40/16 
f 17/17/17 13/41/13 16/40/16 35/39/34 
f 20/32/20 13/41/13 17/17/17 19/19/19 
f 20/32/20 19/19/19 36/42/30 24/25/24 
f 25/26/25 24/25/24 36/42/30 
f 37/43/35 38/44/36 39/45/37 40/46/5 
f 4/4/4 39/45/37 38/44/36 41/47/38 
f 6/6/6 33/48/26 32/49/25 7/7/32 
f 42/50/39 4/4/4 41/47/38 
f 27/28/27 19/19/19 9/9/9 43/51/40 
f 43/51/40 9/9/9 12/12/12 44/52/41 
f 45/53/42 41/54/38 38/55/36 37/56/35 8/57/8 46/58/43 
f 28/29/28 44/52/41 47/59/44 48/60/45 
f 47/59/44 49/61/46 50/62/47 48/60/45 
f 49/61/46 45/53/42 46/58/43 50/62/47 
f 48/60/45 32/35/32 29/30/29 28/29/28 
f 47/59/44 44/52/41 12/63/12 1/64/1 
f 42/65/39 41/54/38 45/53/42 49/61/46 
f 50/62/47 46/58/43 8/57/8 7/66/7 
f 1/64/1 42/65/39 49/61/46 47/59/44 
f 32/35/32 48/60/45 50/62/47 7/66/7 
f 4/4/4 3/3/3 51/67/48 39/45/37 
f 39/45/37 51/67/48 52/68/49 40/46/5 
f 53/69/5 26/34/49 6/6/26 5/5/6 
f 18/18/18 17/17/17 35/39/34 34/38/33 
f 34/38/33 10/10/10 18/18/18 
f 11/11/11 10/10/10 34/38/33 
f 11/11/11 34/38/33 23/37/23 2/2/2 
f 2/2/2 23/23/23 22/22/22 3/3/3 
f 3/3/3 22/22/22 54/70/50 51/67/48 
f 51/67/48 54/70/50 31/33/31 52/68/49 
f 26/34/26 53/69/49 52/68/31 31/33/51 
f 22/22/22 15/15/15 54/70/50 
f 54/70/50 15/15/15 31/33/31 
f 1/1/1 4/4/4 42/50/39 
f 6/6/52 26/34/52 25/71/53 33/48/54 
f 33/36/54 25/26/53 36/42/55 30/31/56 
f 30/31/56 36/42/55 19/19/57 27/28/58 
f 27/28/58 43/51/59 44/52/41 28/29/28 
f 8/8/60 37/43/60 40/46/61 5/5/62 
f 5/5/62 40/46/61 52/68/63 53/69/63 
# 45 polygons - 12 triangles

